<?xml version="1.0" encoding="UTF-8"?>
<svg id="Layer_2" xmlns="http://www.w3.org/2000/svg" version="1.1" viewBox="0 0 924 924">
  <defs>
    <style>
      .st0 {
        fill: #ffe000;
      }

      .st1 {
        fill: #202020;
      }
    </style>
  </defs>
  <path class="st0" d="M924,462l-.16,42.48-.47,26.01-.79,22.05-1.1,19.78-1.41,18.22-1.73,17.04-2.04,16.09-2.36,15.29-2.67,14.6-2.98,13.99-3.3,13.44-3.61,12.93-3.93,12.46-4.24,12.02-4.55,11.6-4.87,11.2-5.18,10.81-5.5,10.44-5.81,10.08-6.13,9.72-6.44,9.38-6.76,9.04-7.08,8.7-7.4,8.37-7.72,8.04-8.04,7.72-8.37,7.4-8.7,7.08-9.04,6.76-9.38,6.44-9.72,6.13-10.08,5.81-10.44,5.5-10.81,5.18-11.2,4.87-11.6,4.55-12.02,4.24-12.46,3.93-12.93,3.61-13.44,3.3-13.99,2.98-14.6,2.67-15.29,2.36-16.09,2.04-17.04,1.73-18.22,1.41-19.78,1.1-22.05.79-26.01.47-42.48.16-42.48-.16-26.01-.47-22.05-.79-19.78-1.1-18.22-1.41-17.04-1.73-16.09-2.04-15.29-2.36-14.6-2.67-13.99-2.98-13.44-3.3-12.93-3.61-12.46-3.93-12.02-4.24-11.6-4.55-11.2-4.87-10.81-5.18-10.44-5.5-10.08-5.81-9.72-6.13-9.38-6.44-9.04-6.76-8.7-7.08-8.37-7.4-8.04-7.72-7.72-8.04-7.4-8.37-7.08-8.7-6.76-9.04-6.44-9.38-6.13-9.72-5.81-10.08-5.5-10.44-5.18-10.81-4.87-11.2-4.55-11.6-4.24-12.02-3.93-12.46-3.61-12.93-3.3-13.44-2.98-13.99-2.67-14.6-2.36-15.29-2.04-16.09-1.73-17.04-1.41-18.22-1.1-19.78-.79-22.05-.47-26.01-.16-42.48.16-42.48.47-26.01.79-22.05,1.1-19.78,1.41-18.22,1.73-17.04,2.04-16.09,2.36-15.29,2.67-14.6,2.98-13.99,3.3-13.44,3.61-12.93,3.93-12.46,4.24-12.02,4.55-11.6,4.87-11.2,5.18-10.81,5.5-10.44,5.81-10.08,6.13-9.72,6.44-9.38,6.76-9.04,7.08-8.7,7.4-8.37,7.72-8.04,8.04-7.72,8.37-7.4,8.7-7.08,9.04-6.76,9.38-6.44,9.72-6.13,10.08-5.81,10.44-5.5,10.81-5.18,11.2-4.87,11.6-4.55,12.02-4.24,12.46-3.93,12.93-3.61,13.44-3.3,13.99-2.98,14.6-2.67,15.29-2.36,16.09-2.04,17.04-1.73,18.22-1.41,19.78-1.1,22.05-.79,26.01-.47,42.48-.16,42.48.16,26.01.47,22.05.79,19.78,1.1,18.22,1.41,17.04,1.73,16.09,2.04,15.29,2.36,14.6,2.67,13.99,2.98,13.44,3.3,12.93,3.61,12.46,3.93,12.02,4.24,11.6,4.55,11.2,4.87,10.81,5.18,10.44,5.5,10.08,5.81,9.72,6.13,9.38,6.44,9.04,6.76,8.7,7.08,8.37,7.4,8.04,7.72,7.72,8.04,7.4,8.37,7.08,8.7,6.76,9.04,6.44,9.38,6.13,9.72,5.81,10.08,5.5,10.44,5.18,10.81,4.87,11.2,4.55,11.6,4.24,12.02,3.93,12.46,3.61,12.93,3.3,13.44,2.98,13.99,2.67,14.6,2.36,15.29,2.04,16.09,1.73,17.04,1.41,18.22,1.1,19.78.79,22.05.47,26.01.16,42.48Z"/>
  <path class="st1" d="M188.66,662.93h60.89c34.52,0,66.07-19.49,81.52-50.36,38.98-77.91,99.51-198.13,117.01-234.21,14.56-30.02,23.96-55.09,61.39-55.09,34.56,0,63.77,8.91,63.77,37.3,0,56.68-99.71,45.1-99.71,82.91,0,43.07,93.67,54.93,93.67,91.21,0,26.53-25.52,51.27-147.01,51.27-52.74,0-81.6,76.96-26.37,76.96h144.16c65.78,0,167.8-45.11,167.8-116.84,0-64.13-101.58-86.94-101.58-111.98,0-26.52,97.78-24.15,97.78-91.7,0-47.41-62.63-81.33-206.63-81.33h-56.04c-39.36,0-75.59,21.49-94.46,56.04l-173.19,317.15c-7.05,12.91,2.29,28.66,17,28.66Z"/>
</svg>
